<svg width="32" height="32" viewBox="0 0 32 32" fill="none"
    xmlns="http://www.w3.org/2000/svg">
    <style>
    rect {
      fill: white;
    }
    path{
        fill: black;
    }
    @media (prefers-color-scheme: dark) {
        rect {
         fill: black;
        }
        path{
            fill: white;
        }
    }
    </style>
    <rect width="32" height="32"/>
    <path d="M2 8H6.224C8.32 8 9.8 8.48 10.664 9.44C11.544 10.4 11.984 11.896 11.984 13.928V21.08C11.984 23.224 11.552 24.824 10.688 25.88C9.84 26.92 8.424 27.44 6.44 27.44H2V8ZM6.248 25.496C7.192 25.496 7.872 25.312 8.288 24.944C8.72 24.576 8.984 24.08 9.08 23.456C9.192 22.816 9.248 21.856 9.248 20.576V14.264C9.248 13.16 9.176 12.32 9.032 11.744C8.904 11.152 8.624 10.72 8.192 10.448C7.76 10.16 7.088 10.016 6.176 10.016H4.712V25.496H6.248Z"/>
    <path d="M14.0083 8H16.2642L18.3522 21.968L20.9683 8.072H22.8882L25.5283 22.04L27.5682 8H29.7762L26.6562 27.44H24.6883L21.9762 13.04L19.2402 27.44H17.1762L14.0083 8Z"/>
</svg>
