<?xml version="1.0" encoding="UTF-8"?>
<svg width="92px" height="92px" viewBox="0 0 92 92" version="1.1" xmlns="http://www.w3.org/2000/svg" xmlns:xlink="http://www.w3.org/1999/xlink">
    <title>cib-abstract</title>
    <g id="Page-2" stroke="none" stroke-width="1" fill="none" fill-rule="evenodd">
        <g id="Artboard" transform="translate(-535.000000, -272.000000)" fill="#000000" fill-rule="nonzero">
            <g id="cib-abstract" transform="translate(535.000000, 272.000000)">
                <path d="M46,0 C82.8,0 92,9.2 92,46 C92,82.8 82.8,92 46,92 C9.2,92 0,82.8 0,46 C0,9.2 9.2,0 46,0 Z M38.525,71.0125 C48.3,71.0125 56.0625,62.9625 56.0625,53.475 C56.0625,43.7 48.0125,35.9375 38.525,35.9375 C28.75,35.9375 20.9875,43.9875 20.9875,53.475 C20.9875,63.25 28.75,71.0125 38.525,71.0125 Z M70.4375,70.4375 L70.4375,21.5625 L21.5625,21.5625 L21.5625,30.1875 L61.8125,30.1875 L61.8125,70.4375 L70.4375,70.4375 Z M38.525,44.5625 C43.4125,44.5625 47.4375,48.5875 47.4375,53.475 C47.4375,58.3625 43.4125,62.3875 38.525,62.3875 C26.45,62.3875 26.45,44.5625 38.525,44.5625 Z" id="Shape"></path>
            </g>
        </g>
    </g>
</svg>