<?xml version="1.0" encoding="UTF-8"?>
<svg width="92px" height="92px" viewBox="0 0 92 92" version="1.1" xmlns="http://www.w3.org/2000/svg" xmlns:xlink="http://www.w3.org/1999/xlink">
    <title>universal-access-solid</title>
    <g id="Page-2" stroke="none" stroke-width="1" fill="none" fill-rule="evenodd">
        <g id="Artboard" transform="translate(-517.000000, -507.000000)" fill="#0063B0" fill-rule="nonzero">
            <g id="universal-access-solid" transform="translate(517.000000, 507.000000)">
                <path d="M46,7.41935484 C67.3219274,7.41935484 84.5806452,24.6747339 84.5806452,46 C84.5806452,67.3219274 67.3252661,84.5806452 46,84.5806452 C24.6780726,84.5806452 7.41935484,67.3252661 7.41935484,46 C7.41935484,24.6780726 24.6747339,7.41935484 46,7.41935484 M46,0 C20.5948306,0 0,20.5948306 0,46 C0,71.4051694 20.5948306,92 46,92 C71.4051694,92 92,71.4051694 92,46 C92,20.5948306 71.4051694,0 46,0 Z M46,10.3870968 C26.3314758,10.3870968 10.3870968,26.3314758 10.3870968,46 C10.3870968,65.6685242 26.3314758,81.6129032 46,81.6129032 C65.6685242,81.6129032 81.6129032,65.6685242 81.6129032,46 C81.6129032,26.3314758 65.6685242,10.3870968 46,10.3870968 Z M46,18.5483871 C49.6877903,18.5483871 52.6774194,21.5380161 52.6774194,25.2258065 C52.6774194,28.9135968 49.6877903,31.9032258 46,31.9032258 C42.3122097,31.9032258 39.3225806,28.9135968 39.3225806,25.2258065 C39.3225806,21.5380161 42.3122097,18.5483871 46,18.5483871 Z M67.8390565,36.7300726 C62.5134435,37.9874677 57.5426613,39.094621 52.6034113,39.6620161 C52.7612581,58.4001532 54.8859758,62.4861774 57.247371,68.5272016 C57.9182661,70.2447823 57.0698629,72.1808629 55.3522823,72.8517581 C53.6345161,73.5226532 51.6984355,72.67425 51.0275403,70.9566694 C49.4129032,66.8188952 47.8583629,63.4193468 46.8984839,56.3870968 L45.1018871,56.3870968 C44.1434919,63.4078468 42.5915484,66.8127742 40.9726452,70.9566694 C40.302121,72.6733226 38.3665968,73.5230242 36.6480887,72.8517581 C34.9305081,72.1808629 34.0821048,70.2445968 34.753,68.5272016 C37.1110565,62.491371 39.2389274,58.4107258 39.3969597,39.6620161 C34.4577097,39.0948065 29.4869274,37.9876532 24.161129,36.7300726 C22.5659677,36.3533548 21.5780806,34.7550403 21.9547984,33.1596935 C22.3315161,31.5643468 23.9296452,30.5766452 25.5251774,30.9533629 C43.458871,35.1877742 48.5776694,35.1792419 66.475379,30.9533629 C68.0703548,30.5768306 69.6690403,31.5643468 70.0457581,33.1596935 C70.4221048,34.7550403 69.4342177,36.3535403 67.8390565,36.7300726 L67.8390565,36.7300726 Z" id="Shape"></path>
            </g>
        </g>
    </g>
</svg>