<?xml version="1.0" encoding="UTF-8"?>
<svg width="48px" height="48px" viewBox="0 0 48 48" version="1.1" xmlns="http://www.w3.org/2000/svg" xmlns:xlink="http://www.w3.org/1999/xlink">
    <title>codepen-brands</title>
    <g id="Page-2" stroke="none" stroke-width="1" fill="none" fill-rule="evenodd">
        <g id="Artboard" transform="translate(-397.000000, -105.000000)" fill="#536A81" fill-rule="nonzero">
            <g id="codepen-brands" transform="translate(397.000000, 105.000000)">
                <path d="M47.0892188,14.97225 L25.1517188,0.34725 C24.4029375,-0.11353125 23.6038125,-0.11775 22.8481875,0.34725 L0.9106875,14.97225 C0.3481875,15.3471562 0,16.0169062 0,16.6864687 L0,31.311375 C0,31.9810312 0.3481875,32.6506875 0.91078125,33.0256875 L22.8482812,47.65275 C23.5970625,48.1135312 24.3961875,48.11775 25.1518125,47.65275 L47.0893125,33.0256875 C47.6518125,32.6507812 48.0000937,31.9810312 48.0000937,31.311375 L48.0000937,16.6864687 C48.0000937,16.0169062 47.6518125,15.3471562 47.0892188,14.97225 Z M26.0625,5.91853125 L42.2143125,16.6864687 L35.0089688,21.5079375 L26.0625,15.5346562 L26.0625,5.91853125 Z M21.9375,5.91853125 L21.9375,15.5346562 L12.9910313,21.5079375 L5.7856875,16.6864687 L21.9375,5.91853125 Z M4.125,20.543625 L9.29465625,23.9989687 L4.125,27.4543125 L4.125,20.543625 Z M21.9375,42.0794062 L5.7856875,31.3114687 L12.9910313,26.49 L21.9375,32.4632812 L21.9375,42.0794062 Z M24,28.8739687 L16.7142188,23.9989687 L24,19.1239687 L31.2857813,23.9989687 L24,28.8739687 Z M26.0625,42.0794062 L26.0625,32.4632812 L35.0089687,26.49 L42.2143125,31.3114687 L26.0625,42.0794062 Z M43.875,27.4543125 L38.7053437,23.9989687 L43.875,20.543625 L43.875,27.4543125 Z" id="Shape"></path>
            </g>
        </g>
    </g>
</svg>