<?xml version="1.0" encoding="UTF-8"?>
<svg width="79px" height="92px" viewBox="0 0 79 92" version="1.1" xmlns="http://www.w3.org/2000/svg" xmlns:xlink="http://www.w3.org/1999/xlink">
    <title>css3-alt-brands</title>
    <g id="Page-2" stroke="none" stroke-width="1" fill="none" fill-rule="evenodd">
        <g id="Artboard" transform="translate(-186.000000, -507.000000)" fill="#2196F3" fill-rule="nonzero">
            <g id="css3-alt-brands" transform="translate(186.000000, 507.000000)">
                <path d="M0,0 L7.16696429,81.2803571 L39.4285714,92 L71.6901786,81.2803571 L78.8571429,0 L0,0 Z M64.2973214,16.4285714 L63.3116071,26.1419643 L39.6339286,36.2660714 L39.5723214,36.2866071 L62.4696429,36.2866071 L59.8410714,66.3919643 L39.675,72.2857143 L19.3857143,66.2892857 L18.0714286,51.1133929 L28.1133929,51.1133929 L28.7705357,58.9785714 L39.5723214,61.7098214 L50.8053571,58.5473214 L51.5651786,45.8973214 L17.4142857,45.7946429 L17.4142857,45.7741071 L17.3732143,45.7946429 L16.6339286,36.2866071 L39.6544643,26.6964286 L40.9892857,26.1419643 L15.7508929,26.1419643 L14.5598214,16.4285714 L64.2973214,16.4285714 Z" id="Shape"></path>
            </g>
        </g>
    </g>
</svg>