<?xml version="1.0" encoding="UTF-8"?>
<svg width="62px" height="92px" viewBox="0 0 62 92" version="1.1" xmlns="http://www.w3.org/2000/svg" xmlns:xlink="http://www.w3.org/1999/xlink">
    <title>Figma-logo</title>
    <g id="Page-2" stroke="none" stroke-width="1" fill="none" fill-rule="evenodd">
        <g id="Artboard" transform="translate(-204.000000, -272.000000)" fill-rule="nonzero">
            <g id="Figma-logo" transform="translate(204.000000, 272.000000)">
                <path d="M15.3302679,91.9816074 C23.7925758,91.9816074 30.6605358,85.1136473 30.6605358,76.6513395 L30.6605358,61.3210716 L15.3302679,61.3210716 C6.86796002,61.3210716 0,68.1890316 0,76.6513395 C0,85.1136473 6.86796002,91.9816074 15.3302679,91.9816074 Z" id="path0_fill" fill="#0ACF83"></path>
                <path d="M0,45.9908037 C0,37.5284958 6.86796002,30.6605358 15.3302679,30.6605358 L30.6605358,30.6605358 L30.6605358,61.3210716 L15.3302679,61.3210716 C6.86796002,61.3210716 0,54.4531116 0,45.9908037 Z" id="path1_fill" fill="#A259FF"></path>
                <path d="M0,15.3302679 C0,6.86796002 6.86796002,0 15.3302679,0 L30.6605358,0 L30.6605358,30.6605358 L15.3302679,30.6605358 C6.86796002,30.6605358 0,23.7925758 0,15.3302679 Z" id="path1_fill_1_" fill="#F24E1E"></path>
                <path d="M30.6605358,0 L45.9908037,0 C54.4531116,0 61.3210716,6.86796002 61.3210716,15.3302679 C61.3210716,23.7925758 54.4531116,30.6605358 45.9908037,30.6605358 L30.6605358,30.6605358 L30.6605358,0 Z" id="path2_fill" fill="#FF7262"></path>
                <path d="M61.3210716,45.9908037 C61.3210716,54.4531116 54.4531116,61.3210716 45.9908037,61.3210716 C37.5284958,61.3210716 30.6605358,54.4531116 30.6605358,45.9908037 C30.6605358,37.5284958 37.5284958,30.6605358 45.9908037,30.6605358 C54.4531116,30.6605358 61.3210716,37.5284958 61.3210716,45.9908037 Z" id="path3_fill" fill="#1ABCFE"></path>
            </g>
        </g>
    </g>
</svg>