<?xml version="1.0" encoding="UTF-8"?>
<svg width="50px" height="48px" viewBox="0 0 50 48" version="1.1" xmlns="http://www.w3.org/2000/svg" xmlns:xlink="http://www.w3.org/1999/xlink">
    <title>github-brands</title>
    <g id="Page-2" stroke="none" stroke-width="1" fill="none" fill-rule="evenodd">
        <g id="Artboard" transform="translate(-120.000000, -105.000000)" fill="#536A81" fill-rule="nonzero">
            <g id="github-brands" transform="translate(120.000000, 105.000000)">
                <path d="M16.4528926,38.6181818 C16.4528926,38.8165289 16.2247934,38.9752066 15.9371901,38.9752066 C15.6099174,39.0049587 15.3818182,38.846281 15.3818182,38.6181818 C15.3818182,38.4198347 15.6099174,38.261157 15.8975207,38.261157 C16.1950413,38.231405 16.4528926,38.3900826 16.4528926,38.6181818 Z M13.368595,38.1719008 C13.2991736,38.3702479 13.4975207,38.5983471 13.7950413,38.6578512 C14.0528926,38.7570248 14.3504132,38.6578512 14.4099174,38.4595041 C14.4694215,38.261157 14.2809917,38.0330579 13.9834711,37.9438017 C13.7256198,37.8743802 13.4380165,37.9735537 13.368595,38.1719008 Z M17.7520661,38.0033058 C17.4644628,38.0727273 17.2661157,38.261157 17.2958678,38.4892562 C17.3256198,38.6876033 17.5834711,38.8165289 17.8809917,38.7471074 C18.168595,38.677686 18.3669421,38.4892562 18.3371901,38.2909091 C18.307438,38.1024793 18.0396694,37.9735537 17.7520661,38.0033058 Z M24.277686,0 C10.522314,0 0,10.4429752 0,24.1983471 C0,35.1966942 6.92231405,44.6082645 16.8099174,47.9206612 C18.0793388,48.1487603 18.5256198,47.3652893 18.5256198,46.7206612 C18.5256198,46.1057851 18.4958678,42.7140496 18.4958678,40.631405 C18.4958678,40.631405 11.553719,42.1190083 10.0958678,37.6760331 C10.0958678,37.6760331 8.96528926,34.7900826 7.33884298,34.046281 C7.33884298,34.046281 5.0677686,32.4892562 7.49752066,32.5190083 C7.49752066,32.5190083 9.96694215,32.7173554 11.3256198,35.077686 C13.4975207,38.9057851 17.1371901,37.8049587 18.5553719,37.1504132 C18.7834711,35.5636364 19.4280992,34.4628099 20.1421488,33.8082645 C14.5983471,33.1933884 9.00495868,32.3900826 9.00495868,22.8495868 C9.00495868,20.122314 9.75867769,18.753719 11.3454545,17.0082645 C11.0876033,16.3636364 10.2446281,13.7057851 11.6033058,10.2743802 C13.6760331,9.62975207 18.446281,12.9520661 18.446281,12.9520661 C20.4297521,12.3966942 22.5619835,12.1090909 24.6743802,12.1090909 C26.7867769,12.1090909 28.9190083,12.3966942 30.9024793,12.9520661 C30.9024793,12.9520661 35.6727273,9.61983471 37.7454545,10.2743802 C39.1041322,13.7157025 38.261157,16.3636364 38.0033058,17.0082645 C39.5900826,18.7636364 40.5619835,20.1322314 40.5619835,22.8495868 C40.5619835,32.4198347 34.7206612,33.1834711 29.1768595,33.8082645 C30.0892562,34.5917355 30.8628099,36.0793388 30.8628099,38.4099174 C30.8628099,41.7520661 30.8330579,45.8876033 30.8330579,46.7008264 C30.8330579,47.3454545 31.2892562,48.1289256 32.5487603,47.9008264 C42.4661157,44.6082645 49.1900826,35.1966942 49.1900826,24.1983471 C49.1900826,10.4429752 38.0330579,0 24.277686,0 Z M9.63966942,34.2049587 C9.5107438,34.3041322 9.54049587,34.5322314 9.70909091,34.7206612 C9.8677686,34.8793388 10.0958678,34.9487603 10.2247934,34.8198347 C10.353719,34.7206612 10.3239669,34.492562 10.1553719,34.3041322 C9.99669421,34.1454545 9.76859504,34.0760331 9.63966942,34.2049587 Z M8.56859504,33.4016529 C8.49917355,33.5305785 8.59834711,33.6892562 8.79669421,33.7884298 C8.9553719,33.8876033 9.15371901,33.8578512 9.2231405,33.7190083 C9.29256198,33.5900826 9.19338843,33.431405 8.99504132,33.3322314 C8.79669421,33.2727273 8.63801653,33.3024793 8.56859504,33.4016529 Z M11.7818182,36.9322314 C11.6231405,37.061157 11.6826446,37.3586777 11.9107438,37.5471074 C12.138843,37.7752066 12.4264463,37.8049587 12.5553719,37.646281 C12.6842975,37.5173554 12.6247934,37.2198347 12.4264463,37.031405 C12.2082645,36.8033058 11.9107438,36.7735537 11.7818182,36.9322314 Z M10.6512397,35.4743802 C10.492562,35.5735537 10.492562,35.831405 10.6512397,36.0595041 C10.8099174,36.2876033 11.077686,36.3867769 11.2066116,36.2876033 C11.3652893,36.1586777 11.3652893,35.9008264 11.2066116,35.6727273 C11.0677686,35.4446281 10.8099174,35.3454545 10.6512397,35.4743802 Z" id="Shape"></path>
            </g>
        </g>
    </g>
</svg>