<?xml version="1.0" encoding="UTF-8"?>
<svg width="95px" height="92px" viewBox="0 0 95 92" version="1.1" xmlns="http://www.w3.org/2000/svg" xmlns:xlink="http://www.w3.org/1999/xlink">
    <title>433-github</title>
    <g id="Page-2" stroke="none" stroke-width="1" fill="none" fill-rule="evenodd">
        <g id="Artboard" transform="translate(-862.000000, -507.000000)" fill="#000000" fill-rule="nonzero">
            <g id="433-github" transform="translate(862.000000, 507.000000)">
                <path d="M47.0454545,0.125439002 C21.0763636,0.125439002 0,21.1809091 0,47.1709091 C0,67.9545455 13.4863636,85.5809091 32.1790909,91.8118182 C34.5209091,92.2509091 35.3990909,90.7872727 35.3990909,89.5536364 C35.3990909,88.4245455 35.3572727,84.7236364 35.3363636,80.7927273 C22.2472727,83.6363636 19.4872727,75.2518182 19.4872727,75.2518182 C17.3545455,69.8154545 14.26,68.3727273 14.26,68.3727273 C9.99454545,65.4454545 14.5736364,65.5081818 14.5736364,65.5081818 C19.2990909,65.8427273 21.7872727,70.3590909 21.7872727,70.3590909 C25.99,77.5518182 32.7854545,75.4609091 35.4827273,74.2690909 C35.9009091,71.2372727 37.1136364,69.1463636 38.4727273,67.9754545 C28.0181818,66.7836364 17.0409091,62.7481818 17.0409091,44.7245455 C17.0409091,39.5809091 18.8809091,35.3990909 21.8918182,32.0954545 C21.4109091,30.9036364 19.8009091,26.1363636 22.3518182,19.6545455 C22.3518182,19.6545455 26.3036364,18.4 35.2945455,24.4845455 C39.0372727,23.4390909 43.0727273,22.9163636 47.0663636,22.8954545 C51.06,22.9163636 55.0954545,23.4390909 58.8590909,24.4845455 C67.8290909,18.4 71.7809091,19.6545455 71.7809091,19.6545455 C74.3318182,26.1363636 72.7427273,30.9245455 72.2409091,32.0954545 C75.2518182,35.3781818 77.0709091,39.5809091 77.0709091,44.7245455 C77.0709091,62.79 66.0727273,66.7627273 55.5972727,67.9336364 C57.2909091,69.3972727 58.7963636,72.2618182 58.7963636,76.6527273 C58.7963636,82.9463636 58.7336364,88.0063636 58.7336364,89.5536364 C58.7336364,90.8081818 59.57,92.2718182 61.9745455,91.8118182 C80.6254545,85.56 94.0909091,67.9336364 94.0909091,47.15 C94.0909091,21.1809091 73.0354545,0.104545455 47.0454545,0.125439002 L47.0454545,0.125439002 Z" id="Path"></path>
            </g>
        </g>
    </g>
</svg>