<?xml version="1.0" encoding="UTF-8"?>
<svg width="92px" height="92px" viewBox="0 0 92 92" version="1.1" xmlns="http://www.w3.org/2000/svg" xmlns:xlink="http://www.w3.org/1999/xlink">
    <title>invision</title>
    <g id="Page-2" stroke="none" stroke-width="1" fill="none" fill-rule="evenodd">
        <g id="Artboard" transform="translate(-351.000000, -272.000000)" fill-rule="nonzero">
            <g id="invision" transform="translate(351.000000, 272.000000)">
                <path d="M83.6600606,0 L8.3399394,0 C3.73401514,0 0,3.73401514 0,8.3399394 L0,83.6600606 C0,88.2659849 3.73401514,92 8.3399394,92 L83.6600606,92 C88.2659849,92 92,88.2659849 92,83.6600606 L92,8.3399394 C92,3.73401514 88.2659849,0 83.6600606,0" id="Path" fill="#DC395F"></path>
                <path d="M30.7464697,28.9458485 C33.8047727,28.9458485 36.3664849,26.5486212 36.3664849,23.4070303 C36.3664849,20.2675303 33.8047727,17.871 30.7464697,17.871 C27.6881667,17.871 25.126803,20.2675303 25.126803,23.4070303 C25.126803,26.5486212 27.6881667,28.9458485 30.7464697,28.9458485" id="Path" fill="#FFFFFF"></path>
                <path d="M19.0931364,58.6015606 C18.7631212,60.0066514 18.5972424,61.5239546 18.5972424,62.7617729 C18.5972424,67.6388183 21.2418939,70.8765908 26.8622576,70.8765908 C31.5235909,70.8765908 35.3022121,68.1082271 38.0228335,63.6389092 L36.361606,70.3064697 L45.6173637,70.3064697 L50.9073637,49.0893183 C52.2295151,43.7170757 54.7915757,40.9288486 58.6764849,40.9288486 C61.7344394,40.9288486 63.6354243,42.8305303 63.6354243,45.9700303 C63.6354243,46.8799243 63.5524849,47.8706665 63.2221211,48.945394 L60.4941817,58.6977423 C60.0808789,60.1028335 59.916394,61.5089697 59.916394,62.8300757 C59.916394,67.4600454 62.6429394,70.8466211 68.345894,70.8466211 C73.2222423,70.8466211 77.1064546,67.7074697 79.2555606,60.1861211 L75.6194697,58.7820757 C73.8007271,63.8211665 72.2304546,64.732106 70.990894,64.732106 C69.7509849,64.732106 69.0895606,63.9061968 69.0895606,62.2540303 C69.0895606,61.5103637 69.2554394,60.6848032 69.5028637,59.6909243 L72.148212,50.1894849 C72.8089394,47.9584849 73.0574092,45.9801363 73.0574092,44.1624394 C73.0574092,37.0547423 68.7591968,33.3454697 63.5524849,33.3454697 C58.6764849,33.3454697 53.7171968,37.7436968 51.2384243,42.3726211 L53.0561211,34.0640455 L38.9236665,34.0640455 L36.9397423,41.3822271 L43.551894,41.3822271 L39.4805454,57.6836514 C36.2828486,64.7913486 30.4094849,64.9066968 29.6724394,64.7415151 C28.4621515,64.4686514 27.6881667,64.009 27.6881667,62.436288 C27.6881667,61.5288335 27.8533485,60.2255 28.2666515,58.6538335 L34.4658485,34.0640455 L18.7631212,34.0640455 L16.779197,41.3822271 L23.3080606,41.3822271 L19.0931364,58.6015606" id="Path" fill="#FFFFFF"></path>
            </g>
        </g>
    </g>
</svg>