<?xml version="1.0" encoding="UTF-8"?>
<svg width="92px" height="92px" viewBox="0 0 92 92" version="1.1" xmlns="http://www.w3.org/2000/svg" xmlns:xlink="http://www.w3.org/1999/xlink">
    <title>Shape</title>
    <g id="Page-2" stroke="none" stroke-width="1" fill="none" fill-rule="evenodd">
        <g id="Artboard" transform="translate(-357.000000, -507.000000)" fill="#D6BA32" fill-rule="nonzero">
            <path d="M357,507 L357,599 L449,599 L449,507 L357,507 Z M407.066071,578.751786 C407.066071,587.705357 401.808929,591.791964 394.149107,591.791964 C387.228571,591.791964 383.224107,588.21875 381.170536,583.885714 L388.214286,579.634821 C389.569643,582.0375 390.801786,584.070536 393.779464,584.070536 C396.613393,584.070536 398.420536,582.961607 398.420536,578.628571 L398.420536,549.241964 L407.066071,549.241964 L407.066071,578.751786 L407.066071,578.751786 Z M427.519643,591.791964 C419.490179,591.791964 414.294643,587.972321 411.76875,582.961607 L418.8125,578.895536 C420.660714,581.914286 423.083929,584.152679 427.334821,584.152679 C430.908036,584.152679 433.208036,582.366071 433.208036,579.88125 C433.208036,576.924107 430.866964,575.876786 426.903571,574.13125 L424.747321,573.207143 C418.504464,570.558036 414.376786,567.210714 414.376786,560.166964 C414.376786,553.677679 419.325893,548.749107 427.026786,548.749107 C432.530357,548.749107 436.473214,550.658929 439.307143,555.669643 L432.571429,559.982143 C431.092857,557.333036 429.491071,556.285714 427.00625,556.285714 C424.480357,556.285714 422.878571,557.8875 422.878571,559.982143 C422.878571,562.569643 424.480357,563.616964 428.197321,565.239286 L430.353571,566.163393 C437.705357,569.305357 441.833036,572.529464 441.833036,579.758036 C441.833036,587.520536 435.713393,591.791964 427.519643,591.791964 L427.519643,591.791964 Z" id="Shape"></path>
        </g>
    </g>
</svg>