<?xml version="1.0" encoding="UTF-8"?>
<svg width="61px" height="48px" viewBox="0 0 61 48" version="1.1" xmlns="http://www.w3.org/2000/svg" xmlns:xlink="http://www.w3.org/1999/xlink">
    <title>medium-m-brands</title>
    <g id="Page-2" stroke="none" stroke-width="1" fill="none" fill-rule="evenodd">
        <g id="Artboard" transform="translate(-209.000000, -105.000000)" fill="#536A81" fill-rule="nonzero">
            <g id="medium-m-brands" transform="translate(209.000000, 105.000000)">
                <path d="M7.1875,9.7875 C7.2625,9.05 6.975,8.3125 6.425,7.8125 L0.7875,1.0125 L0.7875,0 L18.3125,0 L31.8625,29.7125 L43.775,0 L60.4875,0 L60.4875,1.0125 L55.6625,5.6375 C55.25,5.95 55.0375,6.475 55.125,6.9875 L55.125,40.9875 C55.0375,41.5 55.25,42.025 55.6625,42.3375 L60.375,46.9625 L60.375,47.975 L36.6625,47.975 L36.6625,46.9625 L41.55,42.225 C42.025,41.75 42.025,41.6 42.025,40.875 L42.025,13.4 L28.4375,47.8875 L26.6,47.8875 L10.8,13.4 L10.8,36.5125 C10.6625,37.4875 10.9875,38.4625 11.675,39.1625 L18.025,46.8625 L18.025,47.875 L0.025,47.875 L0.025,46.875 L6.375,39.1625 C7.05,38.4625 7.3625,37.475 7.1875,36.5125 L7.1875,9.7875 Z" id="Path"></path>
            </g>
        </g>
    </g>
</svg>