<?xml version="1.0" encoding="UTF-8"?>
<svg width="104px" height="92px" viewBox="0 0 104 92" version="1.1" xmlns="http://www.w3.org/2000/svg" xmlns:xlink="http://www.w3.org/1999/xlink">
    <title>371378</title>
    <g id="Page-2" stroke="none" stroke-width="1" fill="none" fill-rule="evenodd">
        <g id="Artboard" transform="translate(-684.000000, -507.000000)" fill="#00D8FF" fill-rule="nonzero">
            <g id="371378" transform="translate(684.000000, 507.000000)">
                <path d="M84.9318906,29.7884853 C83.8602992,29.4196431 82.7499112,29.0706588 81.6066107,28.7406131 C81.7945255,27.9736934 81.9669949,27.2167027 82.1203423,26.4725829 C84.6375156,14.2539039 82.9916998,4.41045087 77.3717288,1.16956728 C71.9828817,-1.93801091 63.1698337,1.3021372 54.2690794,9.04819096 C53.4131667,9.79304624 52.5548636,10.5816625 51.6969293,11.4081558 C51.1252784,10.8613279 50.554548,10.3328871 49.9852883,9.82742983 C40.6570375,1.54484489 31.306906,-1.94554957 25.6924513,1.30471138 C20.3087526,4.4212992 18.7144203,13.6750827 20.980244,25.2548153 C21.1990487,26.3732934 21.4548111,27.5154907 21.7440379,28.6768104 C20.4207292,29.0524557 19.143204,29.4529235 17.9208396,29.8789491 C6.98446637,33.6918506 0,39.6676088 0,45.8660331 C0,52.2678176 7.49782996,58.6889075 18.8889125,62.5823435 C19.7878504,62.8895896 20.7206203,63.1801034 21.68189,63.4559077 C21.3698635,64.7119204 21.0984721,65.9427424 20.8706578,67.1432265 C18.7101914,78.5219899 20.3973777,87.5571521 25.7667345,90.6540662 C31.3127899,93.8522925 40.6206309,90.5648896 49.6841097,82.6423213 C50.4004653,82.0160615 51.1193949,81.3519252 51.8396116,80.6557955 C52.7731175,81.5547332 53.7051513,82.4054971 54.6322216,83.2034906 C63.4112542,90.7581364 72.0819875,93.8087156 77.4463796,90.7031599 C82.986919,87.4957397 84.7875531,77.7898212 82.4498359,65.9809877 C82.2712986,65.0791077 82.0635263,64.1577374 81.8301961,63.2200036 C82.4838521,63.0267559 83.1255565,62.827258 83.7512647,62.6198533 C95.5933792,58.6962623 103.298246,52.3533162 103.298246,45.8660331 C103.298246,39.6451769 96.0885389,33.6291511 84.9318906,29.7884853 L84.9318906,29.7884853 Z M82.3634176,58.4311227 C81.7985707,58.6181176 81.2190139,58.7988616 80.6284251,58.974089 C79.3211132,54.8353709 77.5567017,50.4344545 75.3975222,45.8875461 C77.4579639,41.4489363 79.1541594,37.1042845 80.4248816,32.9924111 C81.4815795,33.298186 82.5072035,33.6206932 83.4955022,33.9610356 C93.0545088,37.2517478 98.8853781,42.1171182 98.8853781,45.8660331 C98.8853781,49.8593108 92.5882161,55.0431432 82.3634176,58.4311227 L82.3634176,58.4311227 Z M78.120813,66.8380028 C79.154527,72.0597126 79.3021741,76.7807455 78.6174444,80.4713739 C78.0022174,83.7876442 76.7649594,85.9986746 75.2351652,86.8841903 C71.9797557,88.7684847 65.0180899,86.3191594 57.5101466,79.8583533 C56.6494535,79.1177266 55.7825089,78.3269043 54.9128063,77.4899299 C57.8234603,74.3065975 60.7324595,70.6058568 63.5715884,66.4958217 C68.5652996,66.0526969 73.2832073,65.3282505 77.5616661,64.3392166 C77.7723804,65.1892454 77.9595596,66.0229095 78.120813,66.8380028 L78.120813,66.8380028 Z M35.2167069,86.5585575 C32.0361324,87.6818162 29.5029625,87.7139932 27.9716974,86.8310518 C24.7133462,84.9517218 23.3587797,77.697335 25.2064842,67.9662263 C25.418118,66.8517931 25.6700192,65.7070222 25.9603491,64.5368766 C30.1919214,65.4725885 34.8752612,66.1459183 39.880924,66.5517182 C42.7391754,70.5734962 45.7322029,74.2701918 48.7483979,77.5070302 C48.0894096,78.1432182 47.4329952,78.7488849 46.7802589,79.3196154 C42.7724556,82.822881 38.7561946,85.3084284 35.2167069,86.5585575 L35.2167069,86.5585575 Z M20.3161074,58.4066677 C15.2791867,56.6850979 11.1195073,54.4475901 8.26824313,52.0059872 C5.70620574,49.8118727 4.41268384,47.633571 4.41268384,45.8660331 C4.41268384,42.1046151 10.0205194,37.3069086 19.3734086,34.0459833 C20.5082511,33.6502961 21.6962318,33.2774088 22.9290768,32.9271375 C24.2216792,37.1318649 25.9173236,41.5280002 27.9636072,45.9734128 C25.8908464,50.4848346 24.1711151,54.951025 22.8658256,59.2050287 C21.9869295,58.9523923 21.1354299,58.6865171 20.3161074,58.4066677 L20.3161074,58.4066677 Z M25.3109221,24.4073608 C23.369628,14.4861311 24.6589209,7.00190743 27.903298,5.1238645 C31.359125,3.12318059 39.0009246,5.97573176 47.055144,13.1273355 C47.5699784,13.5844351 48.0868356,14.0628634 48.6051636,14.5578402 C45.6038621,17.7805207 42.6382312,21.4494524 39.8053541,25.4475105 C34.9471541,25.8978069 30.296727,26.6211495 26.0210261,27.5897739 C25.7522088,26.5084375 25.5140978,25.4460396 25.3109221,24.4073608 L25.3109221,24.4073608 Z M69.8691179,35.4099271 C68.8469879,33.6444123 67.7976443,31.9206358 66.7278921,30.24393 C70.0237526,30.6605782 73.1815267,31.2136577 76.146974,31.8904813 C75.2566775,34.743768 74.1470259,37.7270504 72.8408168,40.7853516 C71.9038182,39.0064143 70.9127615,37.2127674 69.8691179,35.4099271 L69.8691179,35.4099271 Z M51.6983997,17.7115696 C53.7338351,19.9167164 55.7722122,22.3787288 57.7771254,25.0499847 C55.7567671,24.9545564 53.7114029,24.9049116 51.6491232,24.9049116 C49.606333,24.9049116 47.5760464,24.9534532 45.5681911,25.0472267 C47.5751268,22.4007931 49.6311553,19.9420903 51.6983997,17.7115696 L51.6983997,17.7115696 Z M33.4112923,35.4404494 C32.3902651,37.2109287 31.4175955,38.9948306 30.4953061,40.7820421 C29.2102423,37.7344052 28.1108866,34.7375164 27.212868,31.8437784 C30.160112,31.1842385 33.3029932,30.6449494 36.5778927,30.2362075 C35.4930627,31.9283583 34.4350776,33.6648218 33.4112923,35.4400817 L33.4112923,35.4404494 L33.4112923,35.4404494 Z M36.6722177,61.8106435 C33.2886514,61.4331594 30.0985158,60.9216349 27.1520072,60.2802977 C28.0643677,57.3348923 29.1879941,54.2740172 30.5002706,51.1607388 C31.4249503,52.9466634 32.4014811,54.7313008 33.4287599,56.5056414 L33.4289438,56.5056414 C34.4753451,58.3132622 35.5594396,60.0839249 36.6722177,61.8106435 L36.6722177,61.8106435 Z M51.8204894,74.3316038 C49.7289739,72.0749737 47.6427907,69.5787619 45.6053329,66.8937157 C47.5832167,66.9713084 49.5997135,67.0110246 51.6491232,67.0110246 C53.7546126,67.0110246 55.836015,66.9635861 57.8846891,66.8723866 C55.8731563,69.6057909 53.8421345,72.1058639 51.8204894,74.3316038 L51.8204894,74.3316038 Z M72.8829229,51.0020598 C74.2635988,54.1489859 75.4274928,57.1938648 76.3516207,60.0890737 C73.3565708,60.7723323 70.1228584,61.3226541 66.7157566,61.7315799 C67.7880836,60.0322576 68.8466199,58.2788781 69.8867694,56.4753024 C70.9390549,54.6505821 71.9382016,52.8231033 72.8829229,51.0020598 L72.8829229,51.0020598 Z M66.0643066,54.2707076 C64.449565,57.0704879 62.7917976,59.7432146 61.1088404,62.2660886 C58.0435517,62.4852605 54.8767677,62.5981566 51.6491232,62.5981566 C48.4345331,62.5981566 45.3076479,62.4983152 42.2966017,62.302862 C40.5457961,59.7468926 38.8519906,57.0662595 37.2475453,54.2947942 L37.2479131,54.2947942 C35.6476969,51.5308685 34.1749023,48.7435905 32.8403776,45.9719424 C34.1745346,43.193858 35.6434679,40.4034548 37.2344906,37.644493 L37.2341229,37.6450446 C38.8293745,34.8787282 40.5082868,32.2111496 42.2429113,29.6711765 C45.3150027,29.4389494 48.4652389,29.3177794 51.6489392,29.3177794 L51.6491232,29.3177794 C54.8471651,29.3177794 58.001446,29.4398687 61.0726178,29.6741185 C62.7807653,32.1955208 64.4482778,34.8544574 66.0497811,37.6211416 C67.6694879,40.4188999 69.1573595,43.190732 70.502916,45.9092428 C69.1614047,48.6744557 67.6768427,51.4742369 66.0643066,54.2707076 L66.0643066,54.2707076 Z M75.1675012,4.99258167 C78.6266383,6.98738176 79.9718268,15.0324073 77.7984898,25.5819192 C77.6598519,26.2550654 77.5037472,26.9407146 77.3342191,27.6355574 C73.0485891,26.6467073 68.3948522,25.9108617 63.5224955,25.4537621 C60.6841018,21.4117592 57.7427416,17.7371275 54.790349,14.5558175 C55.5841137,13.7922076 56.3767752,13.0640844 57.1661268,12.3769642 C64.7922977,5.74019502 71.9199985,3.11987094 75.1675012,4.99258167 L75.1675012,4.99258167 Z M51.6491232,36.6418526 C56.743411,36.6418526 60.8733035,40.7715613 60.8733035,45.8660331 C60.8733035,50.9603208 56.743411,55.0902141 51.6491232,55.0902141 C46.5548351,55.0902141 42.4249425,50.9603208 42.4249425,45.8660331 C42.4249425,40.7715613 46.5548351,36.6418526 51.6491232,36.6418526 L51.6491232,36.6418526 Z" id="Shape"></path>
            </g>
        </g>
    </g>
</svg>